<svg width="152" height="50" viewBox="0 0 152 50" fill="none" xmlns="http://www.w3.org/2000/svg">
<rect x="2.35156" y="3" width="146.667" height="44.0002" rx="10.4333" fill="black" fill-opacity="0.9"/>
<rect x="1.30824" y="1.95667" width="148.754" height="46.0869" rx="11.4766" stroke="#9672FF" stroke-opacity="0.4" stroke-width="2.08665"/>
<path d="M36.2278 24.0901C36.2399 23.1526 36.4889 22.2334 36.9517 21.418C37.4145 20.6026 38.076 19.9176 38.8747 19.4265C38.3673 18.7019 37.6979 18.1056 36.9197 17.6849C36.1416 17.2642 35.276 17.0307 34.3919 17.003C32.5057 16.805 30.6772 18.1316 29.716 18.1316C28.7363 18.1316 27.2565 17.0227 25.663 17.0555C24.6323 17.0887 23.6277 17.3885 22.7473 17.9254C21.8668 18.4623 21.1404 19.2182 20.639 20.1193C18.4667 23.8804 20.087 29.4076 22.168 32.4477C23.2091 33.9364 24.4257 35.5992 26.0178 35.5402C27.5757 35.4756 28.1575 34.5467 30.0382 34.5467C31.9014 34.5467 32.4473 35.5402 34.0716 35.5027C35.7434 35.4756 36.7966 34.0075 37.8012 32.5047C38.5492 31.444 39.1248 30.2717 39.5067 29.0312C38.5354 28.6205 37.7066 27.9328 37.1235 27.0542C36.5405 26.1755 36.229 25.1446 36.2278 24.0901ZM33.1597 15.0036C34.0712 13.9094 34.5203 12.5029 34.4115 11.083C33.0189 11.2292 31.7326 11.8948 30.8087 12.947C30.3571 13.4611 30.0111 14.0591 29.7907 14.7069C29.5703 15.3548 29.4797 16.0397 29.5241 16.7225C30.2207 16.7297 30.9098 16.5788 31.5395 16.281C32.1693 15.9833 32.7232 15.5465 33.1597 15.0036ZM55.9213 31.7716H50.6048L49.3281 35.5415H47.076L52.1119 21.5936H54.4515L59.4873 35.5415H57.197L55.9213 31.7716ZM51.1554 30.0319H55.3696L53.2922 23.9136H53.234L51.1554 30.0319ZM70.3628 30.4576C70.3628 33.6176 68.6713 35.6479 66.119 35.6479C65.4724 35.6817 64.8294 35.5328 64.2635 35.2182C63.6976 34.9035 63.2318 34.4359 62.9193 33.8688H62.871V38.9056H60.7837V25.3724H62.8042V27.0638H62.8426C63.1694 26.4995 63.6431 26.0343 64.2133 25.7177C64.7834 25.4011 65.4288 25.245 66.0806 25.2661C68.6615 25.2661 70.3628 27.3063 70.3628 30.4576ZM68.2172 30.4576C68.2172 28.3988 67.1533 27.0452 65.53 27.0452C63.935 27.0452 62.8624 28.4272 62.8624 30.4575C62.8624 32.5065 63.935 33.8787 65.53 33.8787C67.1533 33.8787 68.2172 32.5352 68.2172 30.4576ZM81.5552 30.4576C81.5552 33.6176 79.8639 35.6479 77.3115 35.6479C76.6649 35.6817 76.0219 35.5328 75.456 35.2181C74.8901 34.9035 74.4243 34.4358 74.1119 33.8688H74.0636V38.9056H71.9762V25.3724H73.9967V27.0638H74.0351C74.3619 26.4995 74.8356 26.0343 75.4057 25.7177C75.9759 25.4011 76.6212 25.245 77.273 25.2661C79.854 25.2661 81.5552 27.3063 81.5552 30.4576ZM79.4098 30.4576C79.4098 28.3988 78.3458 27.0452 76.7224 27.0452C75.1275 27.0452 74.0548 28.4272 74.0548 30.4575C74.0548 32.5065 75.1275 33.8787 76.7224 33.8787C78.3458 33.8787 79.4098 32.5352 79.4098 30.4576ZM88.9526 31.6554C89.1073 33.0385 90.451 33.9467 92.2871 33.9467C94.0464 33.9467 95.3123 33.0385 95.3123 31.7913C95.3123 30.7086 94.5489 30.0604 92.7413 29.6162L90.9335 29.1807C88.3724 28.5621 87.1834 27.3643 87.1834 25.4206C87.1834 23.014 89.2806 21.3611 92.2585 21.3611C95.2058 21.3611 97.2263 23.014 97.2943 25.4206H95.1872C95.061 24.0287 93.9104 23.1885 92.2289 23.1885C90.5475 23.1885 89.3969 24.0386 89.3969 25.2758C89.3969 26.262 90.1318 26.8422 91.9294 27.2864L93.4662 27.6637C96.3279 28.3405 97.517 29.4901 97.517 31.5301C97.517 34.1397 95.4384 35.774 92.1324 35.774C89.0391 35.774 86.9507 34.178 86.8158 31.6553L88.9526 31.6554ZM102.022 22.966V25.3724H103.956V27.0254H102.022V32.6315C102.022 33.5025 102.409 33.9083 103.259 33.9083C103.489 33.9043 103.718 33.8882 103.946 33.86V35.5032C103.564 35.5746 103.175 35.6069 102.786 35.5996C100.728 35.5996 99.9246 34.8264 99.9246 32.8542V27.0254H98.446V25.3724H99.9246V22.966H102.022ZM105.076 30.4576C105.076 27.2579 106.96 25.2474 109.899 25.2474C112.847 25.2474 114.723 27.2579 114.723 30.4576C114.723 33.6659 112.857 35.6677 109.899 35.6677C106.941 35.6677 105.076 33.6659 105.076 30.4576ZM112.596 30.4576C112.596 28.2628 111.59 26.9673 109.899 26.9673C108.207 26.9673 107.202 28.2725 107.202 30.4576C107.202 32.6612 108.207 33.9467 109.899 33.9467C111.59 33.9467 112.596 32.6612 112.596 30.4576ZM116.443 25.3724H118.434V27.1033H118.483C118.617 26.5627 118.934 26.085 119.38 25.7504C119.825 25.4158 120.372 25.2448 120.929 25.2661C121.169 25.2652 121.409 25.2913 121.644 25.3439V27.2964C121.34 27.2036 121.023 27.161 120.706 27.1702C120.403 27.1579 120.1 27.2114 119.82 27.3269C119.539 27.4425 119.287 27.6174 119.08 27.8397C118.874 28.062 118.718 28.3263 118.623 28.6146C118.528 28.9029 118.497 29.2083 118.531 29.5098V35.5415H116.443V25.3724ZM131.268 32.5547C130.987 34.4008 129.189 35.6677 126.889 35.6677C123.931 35.6677 122.095 33.6857 122.095 30.5058C122.095 27.3161 123.941 25.2474 126.801 25.2474C129.615 25.2474 131.384 27.1801 131.384 30.2634V30.9785H124.202V31.1047C124.169 31.4789 124.215 31.8559 124.339 32.2107C124.463 32.5655 124.661 32.8898 124.919 33.1623C125.178 33.4347 125.492 33.649 125.84 33.7908C126.188 33.9327 126.562 33.9989 126.937 33.9851C127.431 34.0314 127.926 33.9171 128.349 33.6594C128.772 33.4017 129.101 33.0142 129.286 32.5547H131.268ZM124.212 29.5197H129.296C129.314 29.1832 129.263 28.8465 129.146 28.5306C129.028 28.2147 128.847 27.9266 128.612 27.6842C128.378 27.4419 128.096 27.2506 127.785 27.1223C127.473 26.994 127.138 26.9315 126.801 26.9387C126.461 26.9367 126.124 27.002 125.81 27.1309C125.495 27.2598 125.209 27.4497 124.969 27.6897C124.728 27.9296 124.537 28.2149 124.407 28.529C124.277 28.8431 124.211 29.1798 124.212 29.5197ZM50.8938 11.095C51.3314 11.0636 51.7706 11.1297 52.1795 11.2885C52.5885 11.4474 52.9571 11.6951 53.2588 12.0136C53.5605 12.3322 53.7877 12.7138 53.924 13.1308C54.0604 13.5478 54.1025 13.9899 54.0473 14.4252C54.0473 16.5662 52.8901 17.797 50.8938 17.797H48.473V11.0949L50.8938 11.095ZM49.5139 16.8491H50.7775C51.0902 16.8678 51.4032 16.8165 51.6935 16.699C51.9839 16.5815 52.2445 16.4007 52.4562 16.1698C52.6679 15.939 52.8254 15.6638 52.9174 15.3643C53.0093 15.0648 53.0333 14.7487 52.9877 14.4387C53.03 14.1301 53.0036 13.8158 52.9102 13.5186C52.8169 13.2213 52.6589 12.9484 52.4477 12.7193C52.2365 12.4902 51.9772 12.3107 51.6885 12.1937C51.3997 12.0766 51.0886 12.0248 50.7775 12.0421H49.5139V16.8491ZM55.2232 15.2659C55.1914 14.9335 55.2294 14.5981 55.3348 14.2813C55.4402 13.9645 55.6106 13.6732 55.8352 13.4261C56.0598 13.179 56.3335 12.9816 56.6388 12.8465C56.9442 12.7114 57.2744 12.6416 57.6083 12.6416C57.9422 12.6416 58.2724 12.7114 58.5777 12.8465C58.8831 12.9816 59.1568 13.179 59.3814 13.4261C59.6059 13.6732 59.7764 13.9645 59.8818 14.2813C59.9872 14.5981 60.0252 14.9335 59.9934 15.2659C60.0259 15.5986 59.9884 15.9345 59.8833 16.2519C59.7782 16.5693 59.6079 16.8612 59.3833 17.1089C59.1586 17.3565 58.8847 17.5544 58.579 17.6898C58.2733 17.8253 57.9426 17.8952 57.6083 17.8952C57.2739 17.8952 56.9433 17.8253 56.6376 17.6898C56.3319 17.5544 56.0579 17.3565 55.8333 17.1089C55.6087 16.8612 55.4383 16.5693 55.3332 16.2519C55.2282 15.9345 55.1907 15.5986 55.2232 15.2659ZM58.9668 15.2659C58.9668 14.1695 58.4743 13.5284 57.61 13.5284C56.7423 13.5284 56.2543 14.1695 56.2543 15.2659C56.2543 16.371 56.7424 17.0072 57.61 17.0072C58.4743 17.0072 58.9668 16.3666 58.9668 15.2659ZM66.3345 17.7969H65.2989L64.2537 14.0719H64.1747L63.1339 17.7969H62.1083L60.7142 12.7391H61.7265L62.6326 16.5984H62.7072L63.747 12.7391H64.7045L65.7444 16.5984H65.8234L66.725 12.7391H67.7231L66.3345 17.7969ZM68.8957 12.7392H69.8565V13.5427H69.9311C70.0577 13.2541 70.2711 13.0121 70.5416 12.8506C70.8122 12.6891 71.1264 12.616 71.4405 12.6415C71.6866 12.623 71.9337 12.6601 72.1635 12.7501C72.3933 12.8401 72.5999 12.9806 72.768 13.1612C72.9361 13.3419 73.0615 13.5581 73.1347 13.7937C73.2079 14.0294 73.2272 14.2785 73.1911 14.5226V17.7968H72.1929V14.7733C72.1929 13.9606 71.8397 13.5564 71.1015 13.5564C70.9344 13.5486 70.7676 13.577 70.6126 13.6397C70.4575 13.7025 70.3179 13.798 70.2031 13.9197C70.0884 14.0414 70.0014 14.1865 69.948 14.345C69.8946 14.5035 69.8762 14.6717 69.8938 14.838V17.7969H68.8957V12.7392ZM74.7816 10.7648H75.7796V17.7969H74.7816V10.7648ZM77.1672 15.2659C77.1354 14.9335 77.1734 14.5981 77.2789 14.2812C77.3843 13.9643 77.5547 13.673 77.7793 13.4259C78.0039 13.1787 78.2777 12.9813 78.5831 12.8462C78.8885 12.7111 79.2187 12.6413 79.5527 12.6413C79.8866 12.6413 80.2169 12.7111 80.5223 12.8462C80.8276 12.9813 81.1014 13.1787 81.326 13.4259C81.5506 13.673 81.7211 13.9643 81.8265 14.2812C81.9319 14.5981 81.9699 14.9335 81.9381 15.2659C81.9705 15.5986 81.9328 15.9344 81.8277 16.2517C81.7225 16.569 81.5521 16.8608 81.3274 17.1083C81.1028 17.3559 80.8288 17.5537 80.5232 17.689C80.2175 17.8244 79.887 17.8943 79.5527 17.8943C79.2184 17.8943 78.8878 17.8244 78.5822 17.689C78.2765 17.5537 78.0026 17.3559 77.7779 17.1083C77.5533 16.8608 77.3829 16.569 77.2777 16.2517C77.1725 15.9344 77.1349 15.5986 77.1672 15.2659ZM80.9109 15.2659C80.9109 14.1695 80.4183 13.5284 79.554 13.5284C78.6864 13.5284 78.1983 14.1695 78.1983 15.2659C78.1983 16.371 78.6865 17.0072 79.554 17.0072C80.4183 17.0072 80.9109 16.3666 80.9109 15.2659ZM82.9889 16.3666C82.9889 15.4561 83.6667 14.9313 84.87 14.8567L86.24 14.7777V14.3411C86.24 13.8069 85.8868 13.5054 85.2046 13.5054C84.6474 13.5054 84.2612 13.7099 84.1505 14.0675H83.1841C83.2861 13.1987 84.1033 12.6416 85.2507 12.6416C86.5187 12.6416 87.2338 13.2729 87.2338 14.3411V17.7969H86.2729V17.0861H86.1939C86.0336 17.3411 85.8086 17.5489 85.5417 17.6884C85.2748 17.8279 84.9756 17.8941 84.6748 17.8802C84.4625 17.9023 84.2479 17.8797 84.0449 17.8137C83.8418 17.7478 83.6549 17.6401 83.496 17.4975C83.3372 17.3548 83.21 17.1805 83.1227 16.9858C83.0353 16.791 82.9897 16.5801 82.9889 16.3666ZM86.24 15.9344V15.5115L85.0049 15.5905C84.3084 15.6371 83.9925 15.8741 83.9925 16.3199C83.9925 16.7751 84.3874 17.0401 84.9303 17.0401C85.0894 17.0562 85.2502 17.0401 85.4029 16.9928C85.5557 16.9456 85.6974 16.868 85.8196 16.7649C85.9418 16.6617 86.0419 16.535 86.1142 16.3924C86.1864 16.2497 86.2292 16.0939 86.24 15.9344ZM88.5457 15.2659C88.5457 13.6677 89.3672 12.6553 90.6451 12.6553C90.9612 12.6408 91.2749 12.7165 91.5495 12.8736C91.8242 13.0307 92.0484 13.2628 92.1961 13.5427H92.2707V10.7646H93.2687V17.7968H92.3123V16.9976H92.2334C92.0743 17.2756 91.8423 17.5048 91.5623 17.6603C91.2824 17.8159 90.9652 17.8919 90.6452 17.8801C89.3584 17.8801 88.5457 16.8678 88.5457 15.2659ZM89.5768 15.2659C89.5768 16.3385 90.0825 16.9841 90.928 16.9841C91.7693 16.9841 92.2893 16.3293 92.2893 15.2701C92.2893 14.2161 91.7639 13.552 90.928 13.552C90.0878 13.552 89.5768 14.2019 89.5768 15.2659ZM97.3985 15.2659C97.3667 14.9335 97.4047 14.5981 97.5101 14.2813C97.6155 13.9645 97.786 13.6732 98.0106 13.4261C98.2351 13.179 98.5089 12.9816 98.8142 12.8465C99.1195 12.7114 99.4497 12.6416 99.7836 12.6416C100.118 12.6416 100.448 12.7114 100.753 12.8465C101.058 12.9816 101.332 13.179 101.557 13.4261C101.781 13.6732 101.952 13.9645 102.057 14.2813C102.163 14.5981 102.201 14.9335 102.169 15.2659C102.201 15.5986 102.164 15.9345 102.059 16.2519C101.954 16.5693 101.783 16.8612 101.559 17.1089C101.334 17.3565 101.06 17.5544 100.754 17.6898C100.449 17.8253 100.118 17.8952 99.7836 17.8952C99.4493 17.8952 99.1186 17.8253 98.813 17.6898C98.5073 17.5544 98.2333 17.3565 98.0087 17.1089C97.784 16.8612 97.6137 16.5693 97.5086 16.2519C97.4035 15.9345 97.366 15.5986 97.3985 15.2659ZM101.142 15.2659C101.142 14.1695 100.65 13.5284 99.7853 13.5284C98.9177 13.5284 98.4296 14.1695 98.4296 15.2659C98.4296 16.371 98.9178 17.0072 99.7853 17.0072C100.65 17.0072 101.142 16.3666 101.142 15.2659ZM103.508 12.7392H104.469V13.5427H104.544C104.67 13.2541 104.883 13.0121 105.154 12.8506C105.425 12.6891 105.739 12.616 106.053 12.6415C106.299 12.623 106.546 12.6601 106.776 12.7501C107.006 12.8401 107.212 12.9806 107.38 13.1612C107.549 13.3419 107.674 13.5581 107.747 13.7937C107.82 14.0294 107.84 14.2785 107.804 14.5226V17.7968H106.805V14.7733C106.805 13.9606 106.452 13.5564 105.714 13.5564C105.547 13.5486 105.38 13.577 105.225 13.6397C105.07 13.7025 104.93 13.798 104.816 13.9197C104.701 14.0414 104.614 14.1865 104.56 14.345C104.507 14.5035 104.489 14.6717 104.506 14.838V17.7969H103.508L103.508 12.7392ZM113.444 11.48V12.7623H114.539V13.603H113.444V16.2036C113.444 16.7334 113.662 16.9655 114.159 16.9655C114.286 16.9651 114.413 16.9573 114.539 16.9424V17.7739C114.36 17.8059 114.178 17.823 113.996 17.8249C112.886 17.8249 112.444 17.4343 112.444 16.4593V13.603H111.641V12.7621H112.444V11.4801L113.444 11.48ZM115.903 10.7648H116.892V13.552H116.971C117.104 13.2607 117.323 13.0174 117.599 12.8553C117.875 12.6931 118.194 12.62 118.513 12.6459C118.758 12.6326 119.003 12.6734 119.23 12.7656C119.457 12.8578 119.661 12.9989 119.828 13.179C119.994 13.3591 120.119 13.5737 120.193 13.8075C120.266 14.0413 120.288 14.2885 120.255 14.5315V17.7969H119.256V14.7777C119.256 13.9698 118.88 13.5607 118.174 13.5607C118.003 13.5467 117.83 13.5703 117.669 13.6299C117.507 13.6895 117.361 13.7836 117.24 13.9057C117.118 14.0279 117.025 14.175 116.967 14.3369C116.908 14.4988 116.886 14.6715 116.901 14.843V17.7969H115.903V10.7648ZM126.075 16.4312C125.94 16.8935 125.646 17.2933 125.245 17.5608C124.845 17.8283 124.363 17.9464 123.884 17.8945C123.55 17.9033 123.219 17.8395 122.913 17.7075C122.607 17.5755 122.333 17.3784 122.111 17.1301C121.889 16.8817 121.723 16.5879 121.626 16.2691C121.529 15.9503 121.502 15.6142 121.547 15.284C121.503 14.9527 121.53 14.6158 121.627 14.2961C121.724 13.9763 121.889 13.6812 122.11 13.4306C122.331 13.18 122.604 12.9799 122.909 12.8438C123.214 12.7076 123.545 12.6386 123.879 12.6415C125.287 12.6415 126.136 13.603 126.136 15.1912V15.5395H122.564V15.5954C122.549 15.781 122.572 15.9678 122.633 16.1439C122.693 16.32 122.79 16.4814 122.917 16.6178C123.044 16.7542 123.198 16.8626 123.369 16.9361C123.54 17.0095 123.725 17.0464 123.911 17.0443C124.15 17.073 124.392 17.03 124.606 16.9208C124.82 16.8117 124.997 16.6412 125.114 16.4312H126.075ZM122.564 14.8013H125.119C125.131 14.6316 125.108 14.4611 125.051 14.3008C124.994 14.1405 124.904 13.9939 124.786 13.8705C124.669 13.7471 124.527 13.6496 124.37 13.5843C124.213 13.519 124.044 13.4872 123.874 13.4911C123.701 13.4889 123.53 13.5213 123.37 13.5864C123.21 13.6515 123.065 13.7479 122.943 13.87C122.821 13.9922 122.724 14.1375 122.659 14.2974C122.594 14.4573 122.562 14.6287 122.564 14.8013Z" fill="white" fill-opacity="0.9"/>
</svg>
