<svg width="152" height="50" viewBox="0 0 152 50" fill="none" xmlns="http://www.w3.org/2000/svg">
<rect x="2.68457" y="3" width="146.667" height="44.0002" rx="10.4333" fill="black" fill-opacity="0.9"/>
<rect x="1.64125" y="1.95667" width="148.754" height="46.0869" rx="11.4766" stroke="#9672FF" stroke-opacity="0.4" stroke-width="2.08665"/>
<path d="M12.2822 13.4473C12.2118 13.7077 12.1748 13.9805 12.1748 14.2638V36.2998C12.1748 36.5825 12.2114 36.8563 12.2827 37.1158L24.4009 24.9643L12.2827 13.4476" fill="#5778C5"/>
<path d="M118.869 36.3162H120.922V22.5192H118.869V36.3162ZM137.363 27.4895L135.009 33.4709H134.939L132.496 27.4895H130.284L133.948 35.8494L131.859 40.4998H134L139.646 27.49L137.363 27.4895ZM125.718 34.749C125.047 34.749 124.108 34.4114 124.108 33.5773C124.108 32.5125 125.277 32.1042 126.285 32.1042C127.187 32.1042 127.613 32.2991 128.161 32.5655C128.001 33.8437 126.904 34.7489 125.718 34.7489L125.718 34.749ZM125.967 27.1878C124.48 27.1878 122.941 27.8447 122.304 29.3001L124.126 30.0632C124.516 29.3001 125.241 29.0519 126.002 29.0519C127.064 29.0519 128.143 29.6903 128.161 30.8266V30.9684C127.789 30.7555 126.992 30.4361 126.02 30.4361C124.054 30.4361 122.055 31.5185 122.055 33.542C122.055 35.3879 123.666 36.5772 125.471 36.5772C126.85 36.5772 127.613 35.956 128.089 35.228H128.161V36.2936H130.144V31.0037C130.144 28.5543 128.319 27.1878 125.967 27.1878V27.1878ZM113.278 29.169H110.357V24.4401H113.278C114.813 24.4401 115.684 25.7145 115.684 26.8045C115.684 27.8737 114.812 29.169 113.278 29.169ZM113.225 22.5195H108.305V36.3165H110.357V31.0896H113.225C115.5 31.0896 117.737 29.4377 117.737 26.805C117.737 24.1729 115.5 22.5201 113.225 22.5201L113.225 22.5195ZM86.3978 34.7513C84.9793 34.7513 83.7922 33.5598 83.7922 31.9247C83.7922 30.2706 84.9793 29.0623 86.3978 29.0623C87.7982 29.0623 88.8972 30.2707 88.8972 31.9247C88.8972 33.5598 87.7982 34.7513 86.3978 34.7513ZM88.7553 28.2619H88.6844C88.2237 27.7109 87.3369 27.213 86.2207 27.213C83.8803 27.213 81.7356 29.2757 81.7356 31.9247C81.7356 34.5557 83.8803 36.6002 86.2207 36.6002C87.3369 36.6002 88.2236 36.1023 88.6844 35.5338H88.7553V36.2088C88.7553 38.0052 87.7982 38.9647 86.256 38.9647C84.9978 38.9647 84.2178 38.0581 83.8984 37.2938L82.1083 38.0404C82.622 39.2844 83.9866 40.814 86.256 40.814C88.6673 40.814 90.7059 39.3914 90.7059 35.9242V27.4974H88.7554L88.7553 28.2619ZM92.1243 36.3158H94.1797V22.5188H92.1243V36.3158ZM97.2112 31.7644C97.1583 29.9508 98.6123 29.0265 99.6577 29.0265C100.473 29.0265 101.164 29.4356 101.395 30.0219L97.2112 31.7644ZM103.593 30.1995C103.203 29.1512 102.015 27.213 99.5867 27.213C97.1755 27.213 95.1725 29.1153 95.1725 31.9067C95.1725 34.538 97.1583 36.6003 99.8167 36.6003C101.962 36.6003 103.203 35.2851 103.717 34.5203L102.122 33.4534C101.59 34.2358 100.863 34.7514 99.8167 34.7514C98.7714 34.7514 98.0266 34.2712 97.5486 33.3289L103.805 30.7333L103.593 30.1995ZM53.7392 28.6532V30.6444H58.4898C58.348 31.7645 57.9757 32.5822 57.4084 33.1512C56.7168 33.8444 55.6355 34.6091 53.7391 34.6091C50.8141 34.6091 48.5275 32.2446 48.5275 29.3111C48.5275 26.3775 50.8141 24.0127 53.7391 24.0127C55.3168 24.0127 56.4688 24.6351 57.3197 25.4352L58.7205 24.0303C57.5325 22.8926 55.9551 22.0215 53.7391 22.0215C49.7322 22.0215 46.3643 25.2929 46.3643 29.3111C46.3643 33.3288 49.7322 36.6003 53.7391 36.6003C55.9014 36.6003 57.5326 35.8891 58.8087 34.5557C60.1205 33.24 60.5284 31.3911 60.5284 29.8974C60.5284 29.4357 60.4926 29.009 60.4218 28.6532H53.7392ZM65.93 34.7513C64.5115 34.7513 63.2883 33.5779 63.2883 31.9067C63.2883 30.2177 64.5115 29.0623 65.93 29.0623C67.3479 29.0623 68.5711 30.2177 68.5711 31.9067C68.5711 33.5779 67.3479 34.7513 65.93 34.7513ZM65.93 27.213C63.3411 27.213 61.232 29.1864 61.232 31.9067C61.232 34.6091 63.3411 36.6003 65.93 36.6003C68.5179 36.6003 70.6274 34.6091 70.6274 31.9067C70.6274 29.1864 68.5179 27.213 65.93 27.213ZM76.1773 34.7513C74.7598 34.7513 73.5362 33.5779 73.5362 31.9067C73.5362 30.2177 74.7599 29.0623 76.1773 29.0623C77.5958 29.0623 78.8186 30.2177 78.8186 31.9067C78.8186 33.5779 77.5958 34.7513 76.1773 34.7513ZM76.1773 27.213C73.5894 27.213 71.4803 29.1864 71.4803 31.9067C71.4803 34.6091 73.5894 36.6003 76.1773 36.6003C78.7662 36.6003 80.8753 34.6091 80.8753 31.9067C80.8753 29.1864 78.7662 27.213 76.1773 27.213Z" fill="white" fill-opacity="0.9"/>
<path d="M23.998 24.6447L12.2842 37.1149C12.2846 37.1174 12.2855 37.1196 12.2859 37.1222C12.6452 38.4764 13.8783 39.4734 15.3419 39.4734C15.9269 39.4734 16.4762 39.3148 16.9473 39.0363L16.9847 39.0143L30.1708 31.3829L23.9986 24.6445" fill="#EB3131"/>
<path d="M35.8483 22.5218L35.837 22.5141L30.1442 19.2041L23.7305 24.9282L30.1665 31.3824L35.8293 28.1053C36.8221 27.5678 37.4961 26.518 37.4961 25.3075C37.4961 24.1057 36.8311 23.0612 35.8482 22.5219" fill="#F6B60B"/>
<path d="M24.0845 25.2811L30.148 19.2015L16.9768 11.5424C16.498 11.2548 15.9392 11.0889 15.3413 11.0889C13.8778 11.0889 12.643 12.0877 12.2836 13.4434C12.2832 13.4448 12.2832 13.4457 12.2832 13.4468L24.0845 25.2813" fill="#3BAD49"/>
<path d="M53.3523 14.0028H50.1424V14.7995H52.5477C52.4824 15.4496 52.2245 15.96 51.7895 16.3308C51.3545 16.7016 50.7992 16.8877 50.1424 16.8877C49.4221 16.8877 48.8117 16.636 48.3115 16.136C47.8214 15.6256 47.5722 14.9944 47.5722 14.234C47.5722 13.4736 47.8214 12.8425 48.3115 12.3321C48.8117 11.8321 49.4221 11.582 50.1424 11.582C50.5122 11.582 50.8646 11.6458 51.1877 11.7855C51.511 11.9251 51.7706 12.12 51.9735 12.3701L52.5838 11.7579C52.307 11.4423 51.9563 11.2009 51.5212 11.025C51.0862 10.8491 50.6324 10.7647 50.1423 10.7647C49.1813 10.7647 48.3665 11.0992 47.701 11.7666C47.0357 12.4356 46.7021 13.2598 46.7021 14.234C46.7021 15.2082 47.0357 16.0343 47.701 16.7017C48.3664 17.3689 49.1813 17.7035 50.1423 17.7035C51.1516 17.7035 51.9562 17.3793 52.5751 16.7205C53.1201 16.1723 53.3986 15.4308 53.3986 14.5031C53.3986 14.3462 53.3797 14.1789 53.3522 14.003L53.3523 14.0028ZM54.5958 10.9129V17.5551H58.4623V16.7394H55.4468V14.6324H58.1667V13.8357H55.4468V11.7303H58.4623V10.9128L54.5958 10.9129ZM63.8842 11.7303V10.9129H59.3332V11.7303H61.1832V17.5551H62.0343V11.7303H63.8842ZM68.0043 10.9129H67.1533V17.5551H68.0043V10.9129ZM73.6216 11.7303V10.9129H69.0707V11.7303H70.9206V17.5551H71.7716V11.7303H73.6216ZM82.2093 11.7768C81.5525 11.0991 80.7479 10.7646 79.7868 10.7646C78.824 10.7646 78.0195 11.0991 77.3627 11.7665C76.7059 12.4252 76.3827 13.2512 76.3827 14.234C76.3827 15.2168 76.7059 16.0428 77.3627 16.7016C78.0194 17.3688 78.824 17.7035 79.7868 17.7035C80.7392 17.7035 81.5524 17.3688 82.2093 16.7016C82.8661 16.0429 83.1892 15.2169 83.1892 14.234C83.1892 13.2598 82.866 12.4355 82.2093 11.7768ZM77.973 12.3321C78.463 11.832 79.0648 11.582 79.7868 11.582C80.5072 11.582 81.1089 11.832 81.5903 12.3321C82.0803 12.8235 82.3209 13.4649 82.3209 14.234C82.3209 15.0048 82.0803 15.6444 81.5903 16.1359C81.1089 16.636 80.5072 16.8877 79.7868 16.8877C79.0648 16.8877 78.463 16.636 77.973 16.1359C77.4933 15.6341 77.2526 15.0048 77.2526 14.234C77.2526 13.4649 77.4933 12.8338 77.973 12.3321ZM85.2111 13.4184L85.175 12.1371H85.2111L88.5774 17.555H89.4663V10.9128H88.6152V14.7994L88.6513 16.0807H88.6152L85.3968 10.9128H84.3601V17.555H85.2111V13.4184Z" fill="white" fill-opacity="0.9" stroke="white" stroke-opacity="0.9" stroke-width="0.260446" stroke-miterlimit="10"/>
</svg>
