<svg width="204" height="40" viewBox="0 0 204 40" fill="none" xmlns="http://www.w3.org/2000/svg">
<g filter="url(#filter0_d_202_16965)">
<path d="M30.6002 28.077L10 8.68643V19.6076L29.977 39.4671C30.1701 39.4671 30.3588 39.4714 30.5519 39.4714C30.7757 39.4714 31.0039 39.4671 31.2278 39.4628L51.2706 19.6033V8.68213L30.6002 28.077Z" fill="url(#paint0_linear_202_16965)"/>
</g>
<path d="M12.627 6.87124L19.9796 13.7865C22.0385 13.5832 24.0567 13.4516 26.0057 13.3798V19.4496L30.5589 23.7288L35.112 19.4536V13.4117C37.3296 13.5074 39.3437 13.6589 41.1056 13.8264L48.4948 6.8872V6.87124C29.1144 3.45746 12.627 6.87124 12.627 6.87124Z" fill="url(#paint1_linear_202_16965)"/>
<path d="M78.5806 14.9976C79.332 14.9976 79.7048 15.3344 79.7048 16.0137C79.7048 16.2592 79.6698 16.4762 79.5941 16.6646C79.5184 16.853 79.4601 16.9843 79.4194 17.0528H74.2995V29.8578H71.9172V17.0528H67.9913C67.24 17.0528 66.8672 16.7159 66.8672 16.0366C66.8672 15.7911 66.9021 15.5742 66.9778 15.3858C67.0536 15.1974 67.1118 15.0661 67.1526 14.9976H78.5806Z" fill="#E0E3F5"/>
<path d="M84.5571 23.3038V27.8252H92.17V29.8576H82.1748V16.2933C82.1748 15.8766 82.2913 15.5569 82.5185 15.3285C82.7456 15.1059 83.0951 14.9917 83.5669 14.9917H91.1797C91.9137 14.9917 92.2806 15.3285 92.2806 16.0079C92.2806 16.2534 92.2457 16.4703 92.17 16.6587C92.0942 16.8471 92.036 16.9784 91.9952 17.0469H84.5571V21.2429H90.871C91.605 21.2429 91.9719 21.5797 91.9719 22.2591C91.9719 22.5046 91.937 22.7215 91.8612 22.9099C91.7855 23.0983 91.7273 23.2296 91.6865 23.2981H84.5571V23.3038Z" fill="#E0E3F5"/>
<path d="M107.11 16.8355C107.11 17.0068 107.075 17.1723 106.999 17.3207C106.923 17.4749 106.842 17.6119 106.743 17.7318C106.649 17.8517 106.545 17.9601 106.434 18.0458C106.323 18.1314 106.23 18.1942 106.16 18.2399C106.026 18.0972 105.846 17.9316 105.607 17.7432C105.368 17.5548 105.077 17.3778 104.721 17.2123C104.366 17.0467 103.964 16.904 103.51 16.7898C103.056 16.6756 102.555 16.6185 102.007 16.6185C101.227 16.6185 100.51 16.7556 99.8578 17.0296C99.2054 17.3036 98.6346 17.6918 98.157 18.1999C97.6794 18.7023 97.3066 19.3131 97.0445 20.0267C96.7824 20.7404 96.6484 21.5453 96.6484 22.4359C96.6484 23.3722 96.7882 24.2 97.0678 24.9136C97.3474 25.6272 97.7318 26.2266 98.2153 26.7061C98.6987 27.1914 99.2753 27.5568 99.9452 27.808C100.615 28.0591 101.349 28.1847 102.141 28.1847C102.683 28.1847 103.184 28.1391 103.644 28.042C104.104 27.945 104.494 27.8422 104.838 27.7166C105.176 27.5967 105.461 27.4711 105.688 27.3512C105.915 27.2314 106.09 27.1343 106.207 27.0601L107.244 28.8127C107.127 28.8984 106.917 29.0239 106.626 29.1781C106.335 29.3379 105.962 29.4921 105.514 29.6405C105.065 29.7947 104.541 29.9259 103.947 30.0401C103.353 30.1543 102.7 30.2114 101.995 30.2114C100.906 30.2114 99.8869 30.0401 98.9375 29.7033C97.9881 29.3665 97.161 28.8641 96.4562 28.2019C95.7514 27.5396 95.1922 26.729 94.7903 25.7699C94.3884 24.8108 94.1846 23.7033 94.1846 22.4473C94.1846 21.237 94.3884 20.1409 94.7903 19.1704C95.1922 18.1999 95.7514 17.3721 96.4562 16.7042C97.161 16.0363 97.9939 15.5167 98.9492 15.1571C99.9044 14.7974 100.93 14.6147 102.019 14.6147C103.149 14.6147 104.092 14.746 104.844 15.0029C105.595 15.2656 106.119 15.4996 106.411 15.7166C106.661 15.9049 106.842 16.0933 106.952 16.276C107.057 16.4816 107.11 16.6585 107.11 16.8355Z" fill="#E0E3F5"/>
<path d="M123.064 29.8522C123.046 29.6239 123.023 29.2014 122.988 28.5962C122.953 27.9911 122.912 27.2832 122.866 26.4783C122.819 25.6733 122.772 24.8227 122.72 23.9264C122.667 23.0301 122.621 22.1909 122.574 21.3974C122.528 20.6038 122.487 19.9073 122.452 19.3022C122.417 18.6971 122.388 18.286 122.376 18.0691C122.231 18.3717 122.044 18.7542 121.823 19.2166C121.602 19.679 121.357 20.1757 121.095 20.7066C120.833 21.2375 120.559 21.797 120.279 22.385C120 22.9673 119.726 23.5325 119.452 24.0805C119.179 24.6286 118.922 25.1481 118.678 25.6391C118.433 26.13 118.223 26.5468 118.049 26.895H116.307C116.039 26.3755 115.724 25.7361 115.346 24.9711C114.973 24.2061 114.583 23.4126 114.175 22.5791C113.773 21.7513 113.371 20.9349 112.987 20.1357C112.597 19.3364 112.253 18.6457 111.962 18.0691C111.944 18.4002 111.921 18.874 111.886 19.4963C111.851 20.1186 111.81 20.8094 111.764 21.5743C111.717 22.3393 111.676 23.1329 111.63 23.9664C111.583 24.7941 111.542 25.5877 111.496 26.347C111.449 27.1062 111.414 27.7913 111.385 28.4136C111.356 29.0358 111.333 29.5154 111.321 29.8636H108.979C108.997 29.4868 109.02 28.9445 109.055 28.2309C109.09 27.5173 109.131 26.7237 109.178 25.8503C109.224 24.9768 109.271 24.0634 109.323 23.1043C109.376 22.1452 109.428 21.2261 109.475 20.3469C109.527 19.4678 109.568 18.6742 109.609 17.9663C109.644 17.2584 109.678 16.7218 109.708 16.345C109.737 15.9111 109.894 15.58 110.174 15.3517C110.453 15.1233 110.808 15.0034 111.234 15.0034C111.659 15.0034 112.02 15.0662 112.317 15.1861C112.614 15.306 112.83 15.4487 112.981 15.6086C113.098 15.854 113.266 16.1909 113.476 16.6133C113.686 17.0358 113.925 17.5153 114.181 18.0405C114.437 18.5658 114.711 19.1195 114.996 19.6961C115.282 20.2727 115.561 20.8379 115.835 21.3917C116.109 21.9454 116.371 22.4649 116.621 22.9502C116.872 23.4354 117.082 23.8465 117.262 24.1947C117.495 23.7494 117.798 23.1557 118.159 22.4192C118.52 21.6828 118.893 20.9235 119.283 20.1357C119.674 19.3479 120.041 18.6057 120.384 17.8978C120.728 17.1899 120.996 16.6419 121.188 16.2537C121.363 15.894 121.584 15.5914 121.852 15.3574C122.12 15.1176 122.522 15.0034 123.064 15.0034C123.489 15.0034 123.827 15.0548 124.065 15.1633C124.304 15.2717 124.467 15.3517 124.537 15.4145C124.566 15.8198 124.601 16.3964 124.648 17.1557C124.694 17.9149 124.741 18.7599 124.793 19.6961C124.846 20.6324 124.898 21.6143 124.957 22.6362C125.015 23.6581 125.073 24.64 125.131 25.5762C125.19 26.5125 125.236 27.3574 125.277 28.1167C125.312 28.876 125.347 29.4526 125.376 29.8579H123.064V29.8522Z" fill="#E0E3F5"/>
<path d="M127.147 29.8525C127.602 28.6422 128.097 27.3863 128.627 26.0904C129.157 24.7944 129.675 23.5385 130.182 22.3282C130.689 21.1179 131.172 19.9933 131.627 18.9543C132.081 17.9152 132.471 17.0589 132.797 16.3795C133.089 15.7459 133.397 15.3063 133.712 15.0722C134.026 14.8324 134.428 14.7183 134.912 14.7183C135.366 14.7183 135.716 14.7925 135.949 14.9352C136.182 15.0779 136.362 15.2092 136.479 15.3234C136.741 15.7687 137.061 16.3852 137.428 17.1731C137.795 17.9609 138.185 18.8229 138.599 19.7706C139.012 20.7126 139.426 21.7002 139.845 22.7221C140.265 23.744 140.661 24.7202 141.028 25.6508C141.395 26.5813 141.721 27.4148 142.012 28.1627C142.297 28.9048 142.519 29.47 142.664 29.8582H140.107C140.032 29.6983 139.938 29.47 139.834 29.1788C139.729 28.8877 139.601 28.5566 139.472 28.2026C139.339 27.8487 139.199 27.4833 139.053 27.1008C138.907 26.7183 138.768 26.353 138.634 26.0104H131.021C130.683 26.8325 130.386 27.5804 130.136 28.2597C129.885 28.9391 129.687 29.47 129.541 29.8582H127.147V29.8525ZM134.848 16.9219C134.685 17.253 134.492 17.6755 134.265 18.1893C134.038 18.703 133.788 19.2739 133.514 19.8962C133.24 20.5242 132.96 21.1921 132.663 21.8943C132.366 22.6022 132.081 23.3101 131.801 24.0123H137.824C137.556 23.3215 137.277 22.6079 136.974 21.8829C136.671 21.1579 136.385 20.4614 136.112 19.8049C135.838 19.1484 135.593 18.566 135.372 18.0522C135.156 17.5442 134.982 17.1674 134.848 16.9219Z" fill="#E0E3F5"/>
<path d="M147.628 15.4942C147.773 15.6826 148.012 15.9966 148.332 16.4362C148.653 16.8758 149.026 17.3896 149.433 17.9833C149.847 18.577 150.295 19.2278 150.779 19.9414C151.262 20.6551 151.757 21.3858 152.258 22.128C152.759 22.8701 153.243 23.6008 153.714 24.3202C154.186 25.0395 154.611 25.7017 154.996 26.3126V16.1051C154.996 15.7283 155.106 15.4543 155.328 15.2716C155.549 15.0889 155.852 15.0033 156.231 15.0033C156.499 15.0033 156.732 15.0375 156.935 15.1003C157.139 15.1631 157.279 15.2202 157.355 15.2602V29.8578H154.862C154.495 29.3097 154.087 28.6932 153.639 28.0081C153.19 27.323 152.724 26.6094 152.235 25.8673C151.751 25.1251 151.256 24.3773 150.755 23.6294C150.255 22.8815 149.771 22.1679 149.311 21.4886C148.851 20.8092 148.414 20.1869 148.012 19.616C147.604 19.0451 147.261 18.5656 146.964 18.1774V29.8578H144.622V16.2307C144.622 15.9281 144.744 15.6484 144.995 15.3858C145.245 15.1232 145.618 14.9976 146.119 14.9976C146.503 14.9976 146.812 15.0604 147.057 15.1802C147.307 15.3001 147.494 15.4086 147.628 15.4942Z" fill="#E0E3F5"/>
<path d="M162.014 15.2319C162.294 16.0425 162.631 16.9788 163.028 18.0406C163.424 19.1082 163.849 20.2157 164.297 21.3632C164.746 22.5107 165.2 23.641 165.666 24.7485C166.126 25.8618 166.557 26.8608 166.959 27.7571C167.105 27.426 167.297 26.9864 167.536 26.4384C167.769 25.8903 168.019 25.2795 168.287 24.6001C168.555 23.9208 168.829 23.2072 169.126 22.4593C169.423 21.7114 169.708 20.9636 170 20.2214C170.285 19.4793 170.565 18.7656 170.827 18.0806C171.095 17.3955 171.328 16.779 171.532 16.2309C171.706 15.7685 171.904 15.4431 172.126 15.2547C172.347 15.0663 172.685 14.975 173.139 14.975C173.46 14.975 173.739 15.032 173.966 15.1462C174.193 15.2604 174.345 15.3346 174.421 15.3632C174.304 15.6657 174.118 16.1396 173.867 16.779C173.617 17.4184 173.32 18.1605 172.97 18.994C172.627 19.8332 172.254 20.7295 171.858 21.7C171.462 22.6648 171.054 23.6296 170.635 24.6001C170.215 25.5649 169.807 26.5012 169.411 27.4032C169.015 28.3052 168.648 29.1101 168.311 29.8123H165.532C165.02 28.819 164.507 27.7686 164 26.6667C163.493 25.5649 163.016 24.4917 162.579 23.4526C162.142 22.4136 161.734 21.4545 161.367 20.5639C161.001 19.6791 160.703 18.9483 160.482 18.366C160.395 18.1377 160.313 17.9322 160.237 17.7495C160.162 17.5668 160.098 17.4012 160.039 17.2414C159.935 16.9559 159.865 16.7162 159.83 16.5392C159.795 16.3565 159.777 16.1909 159.777 16.0311C159.777 15.7742 159.865 15.5287 160.039 15.3061C160.214 15.0834 160.517 14.9692 160.942 14.9692C161.28 14.9692 161.548 15.0092 161.734 15.0891C161.921 15.1691 162.014 15.2147 162.014 15.2319Z" fill="#6660CD"/>
<path d="M182.47 14.9977C183.32 14.9977 184.071 15.1291 184.718 15.386C185.364 15.6429 185.9 15.9968 186.32 16.4364C186.739 16.876 187.054 17.3898 187.269 17.9721C187.485 18.5544 187.589 19.1709 187.589 19.8217C187.589 20.444 187.479 21.0434 187.257 21.6258C187.036 22.2081 186.687 22.7276 186.209 23.1729C185.731 23.6181 185.12 23.9835 184.38 24.2518C183.634 24.5259 182.749 24.6629 181.718 24.6629C181.013 24.6629 180.448 24.6286 180.017 24.5658C179.592 24.503 179.318 24.4516 179.202 24.4231V29.8522H176.86V16.288C176.86 15.8712 176.977 15.5515 177.216 15.3231C177.454 15.0948 177.804 14.9863 178.276 14.9863H182.47V14.9977ZM185.143 19.8217C185.143 19.4164 185.091 19.0396 184.98 18.6857C184.869 18.3317 184.689 18.0235 184.438 17.7551C184.188 17.4868 183.862 17.2813 183.454 17.1272C183.046 16.973 182.545 16.8988 181.939 16.8988H179.202V22.5221C179.336 22.5677 179.586 22.6191 179.965 22.6762C180.338 22.7333 180.78 22.7618 181.275 22.7618C181.998 22.7618 182.603 22.6819 183.099 22.5221C183.594 22.3622 183.99 22.151 184.287 21.8826C184.59 21.6143 184.805 21.3061 184.939 20.9521C185.073 20.5982 185.143 20.2214 185.143 19.8217Z" fill="#6660CD"/>
<path d="M193.794 15.4942C193.939 15.6826 194.178 15.9966 194.498 16.4362C194.819 16.8758 195.192 17.3896 195.599 17.9833C196.013 18.577 196.461 19.2278 196.945 19.9414C197.428 20.6551 197.923 21.3858 198.424 22.128C198.925 22.8701 199.409 23.6008 199.88 24.3202C200.352 25.0395 200.777 25.7017 201.162 26.3126V16.1051C201.162 15.7283 201.272 15.4543 201.494 15.2716C201.715 15.0889 202.018 15.0033 202.397 15.0033C202.665 15.0033 202.898 15.0375 203.101 15.1003C203.305 15.1631 203.445 15.2202 203.521 15.2602V29.8578H201.028C200.661 29.3097 200.253 28.6932 199.805 28.0081C199.356 27.323 198.89 26.6094 198.401 25.8673C197.917 25.1251 197.422 24.3773 196.921 23.6294C196.421 22.8815 195.937 22.1679 195.477 21.4886C195.011 20.8092 194.58 20.1869 194.172 19.616C193.764 19.0451 193.421 18.5656 193.124 18.1774V29.8578H190.782V16.2307C190.782 15.9281 190.905 15.6484 191.155 15.3858C191.405 15.1232 191.778 14.9976 192.279 14.9976C192.664 14.9976 192.972 15.0604 193.217 15.1802C193.473 15.3001 193.66 15.4086 193.794 15.4942Z" fill="#6660CD"/>
<defs>
<filter id="filter0_d_202_16965" x="0.252089" y="0.8838" width="60.7663" height="50.2849" filterUnits="userSpaceOnUse" color-interpolation-filters="sRGB">
<feFlood flood-opacity="0" result="BackgroundImageFix"/>
<feColorMatrix in="SourceAlpha" type="matrix" values="0 0 0 0 0 0 0 0 0 0 0 0 0 0 0 0 0 0 127 0" result="hardAlpha"/>
<feOffset dy="1.94958"/>
<feGaussianBlur stdDeviation="4.87396"/>
<feComposite in2="hardAlpha" operator="out"/>
<feColorMatrix type="matrix" values="0 0 0 0 0.662745 0 0 0 0 0.415686 0 0 0 0 0.996078 0 0 0 0.3 0"/>
<feBlend mode="normal" in2="BackgroundImageFix" result="effect1_dropShadow_202_16965"/>
<feBlend mode="normal" in="SourceGraphic" in2="effect1_dropShadow_202_16965" result="shape"/>
</filter>
<linearGradient id="paint0_linear_202_16965" x1="10" y1="39.4713" x2="51.3625" y2="39.4713" gradientUnits="userSpaceOnUse">
<stop stop-color="#68FDFF"/>
<stop offset="0.25" stop-color="#BB76FF"/>
<stop offset="0.526042" stop-color="#431EF5"/>
<stop offset="0.78125" stop-color="#284AF9"/>
<stop offset="1" stop-color="#279BFF"/>
</linearGradient>
<linearGradient id="paint1_linear_202_16965" x1="12.9925" y1="9.86447" x2="48.274" y2="9.4732" gradientUnits="userSpaceOnUse">
<stop stop-color="#25E2FF"/>
<stop offset="0.5" stop-color="#037FFF"/>
<stop offset="1" stop-color="#0095FF"/>
</linearGradient>
</defs>
</svg>
